<?xml version="1.0" encoding="UTF-8" standalone="no"?>
<!-- Created with Inkscape (http://www.inkscape.org/) -->

<svg
   xmlns:dc="http://purl.org/dc/elements/1.1/"
   xmlns:cc="http://creativecommons.org/ns#"
   xmlns:rdf="http://www.w3.org/1999/02/22-rdf-syntax-ns#"
   xmlns:svg="http://www.w3.org/2000/svg"
   xmlns="http://www.w3.org/2000/svg"
   xmlns:sodipodi="http://sodipodi.sourceforge.net/DTD/sodipodi-0.dtd"
   xmlns:inkscape="http://www.inkscape.org/namespaces/inkscape"
   width="1200"
   height="800"
   id="svg3887"
   version="1.1"
   inkscape:version="0.48.5 r10040"
   sodipodi:docname="mountainbg.svg">
  <defs
     id="defs3889" />
  <sodipodi:namedview
     id="base"
     pagecolor="#ffffff"
     bordercolor="#666666"
     borderopacity="1.0"
     inkscape:pageopacity="0.0"
     inkscape:pageshadow="2"
     inkscape:zoom="0.35"
     inkscape:cx="335.71429"
     inkscape:cy="520"
     inkscape:document-units="px"
     inkscape:current-layer="layer1"
     showgrid="false"
     inkscape:window-width="1366"
     inkscape:window-height="744"
     inkscape:window-x="0"
     inkscape:window-y="24"
     inkscape:window-maximized="1" />
  <metadata
     id="metadata3892">
    <rdf:RDF>
      <cc:Work
         rdf:about="">
        <dc:format>image/svg+xml</dc:format>
        <dc:type
           rdf:resource="http://purl.org/dc/dcmitype/StillImage" />
      </cc:Work>
    </rdf:RDF>
  </metadata>
  <g
     inkscape:label="Layer 1"
     inkscape:groupmode="layer"
     id="layer1"
     transform="translate(0,-252.36218)">
    <path
       style="fill:none;stroke:#000000;stroke-width:20.68185616;stroke-linecap:butt;stroke-linejoin:miter;stroke-miterlimit:4;stroke-opacity:1;stroke-dasharray:none"
       d="M -2.5162147,1089.1641 337.14142,361.27454 673.94478,1083.0474"
       id="path3895"
       inkscape:connector-curvature="0" />
    <path
       style="fill:none;stroke:#000000;stroke-width:20.99682236;stroke-linecap:butt;stroke-linejoin:miter;stroke-miterlimit:4;stroke-opacity:1;stroke-dasharray:none"
       d="M 594.78412,915.77491 783.57559,547.1463 1059.5016,1086.1495"
       id="path4405"
       inkscape:connector-curvature="0" />
    <path
       style="fill:none;stroke:#000000;stroke-width:20.39570236;stroke-linecap:butt;stroke-linejoin:miter;stroke-miterlimit:4;stroke-opacity:1;stroke-dasharray:none"
       d="m 851.62642,677.87862 237.83148,-342.46145 118.9156,166.8402"
       id="path4407"
       inkscape:connector-curvature="0" />
    <path
       style="fill:none;stroke:#000000;stroke-width:10;stroke-linecap:butt;stroke-linejoin:miter;stroke-opacity:1;stroke-miterlimit:4;stroke-dasharray:none"
       d="m 234.28571,317.14286 c 0,0 37.14286,48.57143 62.85715,-2.85715"
       id="path4409"
       inkscape:connector-curvature="0"
       transform="translate(0,252.36218)" />
    <path
       style="fill:none;stroke:#000000;stroke-width:10;stroke-linecap:butt;stroke-linejoin:miter;stroke-opacity:1;stroke-miterlimit:4;stroke-dasharray:none"
       d="m 291.42857,317.14286 c 0,0 51.42857,54.28571 82.85714,-2.85715"
       id="path4411"
       inkscape:connector-curvature="0"
       transform="translate(0,252.36218)" />
    <path
       style="fill:none;stroke:#000000;stroke-width:10;stroke-linecap:butt;stroke-linejoin:miter;stroke-opacity:1;stroke-miterlimit:4;stroke-dasharray:none"
       d="m 365.71429,317.14286 c 0,0 51.42857,48.57143 80,2.85714"
       id="path4415"
       inkscape:connector-curvature="0"
       transform="translate(0,252.36218)" />
    <path
       style="fill:none;stroke:#000000;stroke-width:10;stroke-linecap:butt;stroke-linejoin:miter;stroke-miterlimit:4;stroke-opacity:1;stroke-dasharray:none"
       d="m 671.42856,747.85394 c 0,0 37.14286,48.57143 62.85715,-2.85715"
       id="path4409-7"
       inkscape:connector-curvature="0" />
    <path
       style="fill:none;stroke:#000000;stroke-width:10;stroke-linecap:butt;stroke-linejoin:miter;stroke-miterlimit:4;stroke-opacity:1;stroke-dasharray:none"
       d="m 728.57142,747.85394 c 0,0 51.42857,54.28571 82.85714,-2.85715"
       id="path4411-6"
       inkscape:connector-curvature="0" />
    <path
       style="fill:none;stroke:#000000;stroke-width:10;stroke-linecap:butt;stroke-linejoin:miter;stroke-miterlimit:4;stroke-opacity:1;stroke-dasharray:none"
       d="m 802.85714,747.85394 c 0,0 51.42857,48.57143 80,2.85714"
       id="path4415-9"
       inkscape:connector-curvature="0" />
    <path
       style="fill:none;stroke:#000000;stroke-width:10;stroke-linecap:butt;stroke-linejoin:miter;stroke-miterlimit:4;stroke-opacity:1;stroke-dasharray:none"
       d="m 982.85713,482.13966 c 0,0 37.14287,48.57143 62.85717,-2.85715"
       id="path4409-7-6"
       inkscape:connector-curvature="0" />
    <path
       style="fill:none;stroke:#000000;stroke-width:10;stroke-linecap:butt;stroke-linejoin:miter;stroke-miterlimit:4;stroke-opacity:1;stroke-dasharray:none"
       d="m 1040,482.13966 c 0,0 51.4286,54.28571 82.8571,-2.85715"
       id="path4411-6-4"
       inkscape:connector-curvature="0" />
    <path
       style="fill:none;stroke:#000000;stroke-width:10;stroke-linecap:butt;stroke-linejoin:miter;stroke-miterlimit:4;stroke-opacity:1;stroke-dasharray:none"
       d="m 1114.2857,482.13966 c 0,0 51.4286,48.57143 80,2.85714"
       id="path4415-9-4"
       inkscape:connector-curvature="0" />
    <path
       style="fill:#ffffff;stroke:none"
       d="m 315.96431,326.95363 c -5.0482,-3.07804 -12.00451,-8.4224 -15.45847,-11.87636 l -6.27993,-6.27994 -8.39008,10.45848 c -9.78788,12.20087 -22.76053,14.09018 -33.94788,4.94411 l -6.74509,-5.51437 46.06427,-92.34002 46.06427,-92.34002 47.78895,95.54381 c 44.3529,88.67418 47.42127,95.81266 42.67535,99.28296 -10.94315,8.00183 -35.91671,1.66435 -48.97801,-12.42903 l -6.99274,-7.54529 -10.83812,11.85673 c -9.54701,10.44428 -12.32399,11.85547 -23.31105,11.84606 -7.33999,-0.006 -16.25014,-2.31376 -21.65147,-5.60712 l 0,0 z"
       id="path4556"
       inkscape:connector-curvature="0"
       transform="translate(0,252.36218)" />
    <path
       style="fill:#ffffff;stroke:none"
       d="m 762.16754,509.63269 c -4.77928,-1.4465 -13.04657,-6.51989 -18.37174,-11.2742 -5.32517,-4.75431 -10.77556,-8.6442 -12.11197,-8.6442 -1.33641,0 -6.38089,4.5 -11.20996,10 -4.82906,5.5 -11.3414,10 -14.47187,10 -8.6924,0 -22.75107,-9.36172 -21.43783,-14.27553 0.63146,-2.36275 22.35215,-43.156 48.2682,-90.65167 l 47.12009,-86.35578 43.89518,80.64149 c 24.14235,44.35282 45.8593,84.09737 48.25989,88.32124 4.102,7.21751 3.95078,8.12035 -2.51231,15 -5.44098,5.79166 -9.60695,7.31801 -19.9504,7.30957 C 836.75815,509.69308 818,501.37027 818,495.6631 c 0,-1.48863 -2.65796,-3.5502 -5.90659,-4.58128 -4.49004,-1.42508 -8.0874,0.59216 -15,8.41133 -9.94632,11.25077 -20.82208,14.40818 -34.92587,10.13954 l 0,0 z"
       id="path4558"
       inkscape:connector-curvature="0"
       transform="translate(0,252.36218)" />
    <path
       style="fill:#ffffff;stroke:none"
       d="m 1073.5961,243.9184 c -4.7793,-1.44649 -13.0466,-6.51988 -18.3717,-11.27419 -5.3252,-4.75432 -10.7756,-8.64421 -12.112,-8.64421 -1.3364,0 -6.3809,4.5 -11.21,10 -11.3955,12.97877 -18.5148,12.93352 -36.27084,-0.23055 -0.80167,-0.59435 82.33634,-121.12297 88.19184,-127.85536 1.1345,-1.30439 23.5323,27.37055 49.773,63.7221 52.5028,72.73278 53.1125,74.37372 27.6252,74.35313 -13.0305,-0.0105 -31.793,-8.29648 -31.793,-14.0405 0,-1.48863 -2.658,-3.55021 -5.9066,-4.58128 -4.4901,-1.42509 -8.0874,0.59215 -15,8.41133 -9.9463,11.25077 -20.8221,14.40817 -34.9259,10.13953 l 0,0 z"
       id="path4560"
       inkscape:connector-curvature="0"
       transform="translate(0,252.36218)" />
    <path
       style="fill:none;stroke:#000000;stroke-width:1px;stroke-linecap:butt;stroke-linejoin:miter;stroke-opacity:1"
       d="M 8.5714286,822.85714 1208.5714,811.42857 l 5.7143,-568.57143"
       id="path4599"
       inkscape:connector-curvature="0"
       transform="translate(0,252.36218)" />
    <path
       style="fill:#999999;stroke:none"
       d="M 30.294039,795.09226 C 37.145794,780.34866 88.16546,670.96177 143.67107,552.01029 l 100.9193,-216.27542 7.9915,4.13256 c 11.4132,5.902 23.11673,5.11422 34.11032,-2.296 l 9.53725,-6.42857 L 311.80306,339 c 22.2228,11.21176 42.75023,9.48096 54.42737,-4.58911 3.08143,-3.71289 5.36763,-3.29744 18.04306,3.27882 11.59085,6.01354 18.03222,7.4277 31.97768,7.02049 l 17.46312,-0.50992 108.57142,232.7981 C 602,705.03734 651.22751,810.88911 651.6802,812.22457 c 0.45269,1.33546 -89.54731,3.24974 -200,4.254 -110.45269,1.00423 -253.25275,2.63463 -317.33348,3.62306 l -116.510417,1.79717 12.457736,-26.80654 0,0 z"
       id="path4601"
       inkscape:connector-curvature="0"
       transform="translate(0,252.36218)" />
    <path
       style="fill:#999999;stroke:none"
       d="m 675.24161,804.16354 c -2.84336,-5.58994 -18.92387,-39.73497 -35.73448,-75.87783 l -30.56473,-65.71428 37.34763,-72.85714 c 23.84248,-46.51153 38.65293,-72.41553 40.95737,-71.63588 1.98536,0.67169 9.2112,1.77635 16.05743,2.4548 9.61397,0.95271 14.36085,-0.18094 20.85166,-4.9798 l 8.40398,-6.21333 14.70932,7.32996 c 19.50517,9.71983 37.68423,9.82533 51.72037,0.30015 l 10.35901,-7.02981 15.0397,7.0019 c 18.23277,8.48847 34.71332,8.97741 47.14326,1.39865 l 9.24642,-5.63771 4.94308,9.21982 c 2.71869,5.0709 37.25751,72.21982 76.75294,149.21982 54.03323,105.34278 70.67833,140.1432 67.23913,140.5784 -2.514,0.31814 -82.13544,1.0346 -176.93659,1.59214 l -172.36576,1.01371 -5.16974,-10.16357 z"
       id="path4603"
       inkscape:connector-curvature="0"
       transform="translate(0,252.36218)" />
    <path
       style="fill:#999999;stroke:none"
       d="M 1034.27,757.57143 C 934.24729,564.371 866.31045,428.80118 867.7008,425.178 c 0.88885,-2.3163 28.78932,-43.3425 62.00105,-91.16933 l 60.38497,-86.95788 8.10042,4.18889 c 11.80916,6.10675 29.04796,5.30806 38.03636,-1.76227 l 7.5657,-5.95116 14.8092,7.37973 c 19.6083,9.77123 37.7566,9.89378 51.8202,0.34993 l 10.359,-7.02981 15.0397,7.00189 c 18.2021,8.47419 34.7155,8.97611 47.0896,1.4313 9.0828,-5.53801 9.239,-5.53895 13.0635,-0.0788 3.6095,5.15331 4.313,5.21646 10.4245,0.93581 l 6.5537,-4.59043 -1.7776,151.1085 c -0.9777,83.10967 -2.5645,209.28707 -3.5263,280.39421 l -1.7487,129.28572 -72.3155,0 -72.3155,0 -26.9951,-52.14286 0,0 z"
       id="path4605"
       inkscape:connector-curvature="0"
       transform="translate(0,252.36218)" />
  </g>
</svg>
